<svg width="40" height="18" viewBox="0 0 40 18" fill="none" xmlns="http://www.w3.org/2000/svg">
<path d="M30.7709 0.0083965V5.60857e-07H9.01116V0.0123576C4.10294 0.142748 0 4.12416 0 9.00309C0 13.9641 4.18147 18 9.30434 18C13.6853 18 17.3787 15.0476 18.3536 11.0903H21.7009C22.6758 15.0476 26.3556 18 30.7366 18C35.8596 18 40 13.9639 40 9.00309C40.0002 4.07108 35.8427 0.0548172 30.7709 0.0083965ZM9.31808 14.8313C5.99948 14.8313 3.29947 12.2167 3.29947 9.00309C3.29947 5.78944 5.99948 3.17483 9.31808 3.17483C12.6367 3.17483 15.3367 5.78944 15.3367 9.00309C15.3367 12.2167 12.6367 14.8313 9.31808 14.8313ZM30.7367 14.8313C27.4181 14.8313 24.7181 12.2167 24.7181 9.00309C24.7181 5.78944 27.4181 3.17483 30.7367 3.17483C34.0553 3.17483 36.7553 5.78944 36.7553 9.00309C36.7553 12.2167 34.0553 14.8313 30.7367 14.8313Z" fill="#898C90"/>
<path d="M4.09345 3.48118e-07C1.83633 3.48118e-07 2.49645e-09 1.77825 2.49645e-09 3.96382C2.49645e-09 4.57632 0.512745 5.07285 1.14525 5.07285C1.77776 5.07285 2.2905 4.57632 2.2905 3.96382C2.2905 3.00135 3.09921 2.21806 4.09345 2.21806C4.72596 2.21806 5.2387 1.72153 5.2387 1.10903C5.2387 0.496528 4.72596 3.48118e-07 4.09345 3.48118e-07Z" transform="translate(5.06055 4.72266)" fill="#898C90"/>
<path d="M4.09329 3.48118e-07C1.83633 3.48118e-07 9.98579e-07 1.77825 9.98579e-07 3.96382C9.98579e-07 4.57632 0.512746 5.07285 1.14525 5.07285C1.77776 5.07285 2.2905 4.57632 2.2905 3.96382C2.2905 3.00135 3.09921 2.21806 4.09329 2.21806C4.72579 2.21806 5.23854 1.72153 5.23854 1.10903C5.23854 0.496528 4.72579 3.48118e-07 4.09329 3.48118e-07Z" transform="translate(26.3164 4.72266)" fill="#898C90"/>
</svg>
