<svg width="35" height="35" viewBox="0 0 35 35" fill="none" xmlns="http://www.w3.org/2000/svg">
<path d="M3.57378 7.49988C5.54472 7.49988 7.14756 5.81803 7.14756 3.74994C7.14756 1.68185 5.54472 0 3.57378 0C1.60284 0 -3.0674e-08 1.68185 -3.0674e-08 3.74994C-3.0674e-08 5.81803 1.60284 7.49988 3.57378 7.49988ZM3.57378 1.87497C4.55925 1.87497 5.36067 2.7159 5.36067 3.74994C5.36067 4.78399 4.55925 5.62491 3.57378 5.62491C2.58831 5.62491 1.78689 4.78399 1.78689 3.74994C1.78689 2.7159 2.58831 1.87497 3.57378 1.87497Z" transform="translate(14.4258 10)" fill="#FFC107"/>
<path d="M9.73878 0.274918C9.38944 -0.0916393 8.82478 -0.0916393 8.47545 0.274918C6.5599 2.28489 3.44178 2.28489 1.52533 0.274918C1.176 -0.0916393 0.61134 -0.0916393 0.262003 0.274918C-0.0873343 0.641474 -0.0873343 1.23397 0.262003 1.60146C1.37345 2.76769 2.78241 3.43237 4.23516 3.6058L1.68794 6.27857C1.3386 6.64513 1.3386 7.23762 1.68794 7.60418C2.03728 7.97074 2.60194 7.97074 2.95127 7.60418L4.99994 5.45452L7.04861 7.60418C7.22284 7.78699 7.45156 7.87886 7.68028 7.87886C7.909 7.87886 8.13772 7.78699 8.31195 7.60418C8.66128 7.23762 8.66128 6.64513 8.31195 6.27857L5.76473 3.6058C7.21748 3.43237 8.62644 2.76769 9.73789 1.60146C10.0872 1.2349 10.0872 0.641474 9.73878 0.274918Z" transform="translate(13 17.1208)" fill="#FFC107"/>
<circle cx="17.5" cy="17.5" r="17" stroke="#DCE0E5"/>
</svg>
