<svg width="35" height="35" viewBox="0 0 35 35" fill="none" xmlns="http://www.w3.org/2000/svg">
<circle cx="17.5" cy="17.5" r="17" stroke="#DCE0E5"/>
<path d="M13.7702 5.72264C14.301 6.23771 14.8611 6.72228 15.3372 7.28928C15.5475 7.54125 15.7465 7.80124 15.8988 8.09365C16.1146 8.50932 15.9192 8.96674 15.5442 8.99156L13.2133 8.9905C12.6121 9.04008 12.1325 8.79954 11.7292 8.39095C11.4065 8.06421 11.1077 7.71647 10.7973 7.37871C10.6701 7.24067 10.537 7.11077 10.3779 7.00808C10.0597 6.80279 9.7835 6.86563 9.60166 7.1955C9.41647 7.53103 9.37444 7.90253 9.35625 8.27645C9.33128 8.82202 9.16538 8.96547 8.61403 8.99044C7.43576 9.04567 6.31751 8.86849 5.27867 8.27767C4.3628 7.75682 3.65261 7.02149 3.03442 6.18907C1.8309 4.56817 0.909179 2.78702 0.0808064 0.95599C-0.105662 0.543458 0.0307128 0.322018 0.488649 0.314159C1.24905 0.299467 2.00936 0.300523 2.77067 0.313103C3.07974 0.317607 3.28433 0.49379 3.40367 0.784001C3.81508 1.7895 4.31848 2.74614 4.95036 3.63287C5.11864 3.86894 5.29023 4.10504 5.53454 4.27119C5.80485 4.45517 6.01067 4.39419 6.13782 4.09488C6.21851 3.90509 6.25385 3.70068 6.27204 3.49744C6.33229 2.79814 6.34023 2.10003 6.23457 1.40319C6.1697 0.96829 5.92326 0.686746 5.48667 0.604463C5.26389 0.562499 5.29704 0.480092 5.40492 0.353701C5.59226 0.135709 5.76848 -3.41255e-08 6.11976 -3.41255e-08H8.75407C9.16878 0.0813509 9.26088 0.266542 9.31766 0.68131L9.31991 3.58985C9.31538 3.7504 9.40059 4.22692 9.69156 4.33319C9.92444 4.40885 10.0779 4.22366 10.2177 4.0769C10.8484 3.41152 11.2986 2.62516 11.7007 1.8109C11.8792 1.45285 12.0326 1.08104 12.1814 0.709514C12.2916 0.43384 12.4645 0.298193 12.7769 0.304188L15.3122 0.306425C15.3874 0.306425 15.4635 0.307512 15.5363 0.319906C15.9635 0.39228 16.0806 0.574954 15.9486 0.98963C15.7407 1.64022 15.3362 2.1824 14.9407 2.72707C14.5179 3.30858 14.0656 3.87021 13.6464 4.45517C13.2611 4.98943 13.2917 5.25867 13.7702 5.72264Z" transform="translate(9 13)" fill="#436EAB"/>
</svg>
